<?xml version="1.0" standalone="no"?>
<!DOCTYPE svg PUBLIC "-//W3C//DTD SVG 1.1//EN"
   "http://www.w3.org/Graphics/SVG/1.1/DTD/svg11.dtd">
<svg width="378" height="118" version="1.1"
   xmlns="http://www.w3.org/2000/svg">
   <desc>BATCH_FULL_BOX
   </desc>

   <g id="barcode" fill="#000000">
      <rect x="0" y="0" width="378" height="118" fill="#FFFFFF" />
      <rect x="0.00" y="0.00" width="4.00" height="100.00" />
      <rect x="6.00" y="0.00" width="2.00" height="100.00" />
      <rect x="12.00" y="0.00" width="2.00" height="100.00" />
      <rect x="22.00" y="0.00" width="2.00" height="100.00" />
      <rect x="30.00" y="0.00" width="2.00" height="100.00" />
      <rect x="34.00" y="0.00" width="4.00" height="100.00" />
      <rect x="44.00" y="0.00" width="2.00" height="100.00" />
      <rect x="48.00" y="0.00" width="2.00" height="100.00" />
      <rect x="56.00" y="0.00" width="4.00" height="100.00" />
      <rect x="66.00" y="0.00" width="4.00" height="100.00" />
      <rect x="72.00" y="0.00" width="6.00" height="100.00" />
      <rect x="84.00" y="0.00" width="2.00" height="100.00" />
      <rect x="88.00" y="0.00" width="2.00" height="100.00" />
      <rect x="96.00" y="0.00" width="2.00" height="100.00" />
      <rect x="104.00" y="0.00" width="4.00" height="100.00" />
      <rect x="110.00" y="0.00" width="4.00" height="100.00" />
      <rect x="120.00" y="0.00" width="2.00" height="100.00" />
      <rect x="124.00" y="0.00" width="2.00" height="100.00" />
      <rect x="132.00" y="0.00" width="2.00" height="100.00" />
      <rect x="136.00" y="0.00" width="2.00" height="100.00" />
      <rect x="142.00" y="0.00" width="4.00" height="100.00" />
      <rect x="154.00" y="0.00" width="2.00" height="100.00" />
      <rect x="162.00" y="0.00" width="4.00" height="100.00" />
      <rect x="172.00" y="0.00" width="2.00" height="100.00" />
      <rect x="176.00" y="0.00" width="4.00" height="100.00" />
      <rect x="182.00" y="0.00" width="6.00" height="100.00" />
      <rect x="190.00" y="0.00" width="6.00" height="100.00" />
      <rect x="198.00" y="0.00" width="2.00" height="100.00" />
      <rect x="206.00" y="0.00" width="4.00" height="100.00" />
      <rect x="212.00" y="0.00" width="6.00" height="100.00" />
      <rect x="220.00" y="0.00" width="2.00" height="100.00" />
      <rect x="228.00" y="0.00" width="4.00" height="100.00" />
      <rect x="234.00" y="0.00" width="6.00" height="100.00" />
      <rect x="242.00" y="0.00" width="2.00" height="100.00" />
      <rect x="246.00" y="0.00" width="2.00" height="100.00" />
      <rect x="252.00" y="0.00" width="4.00" height="100.00" />
      <rect x="264.00" y="0.00" width="2.00" height="100.00" />
      <rect x="272.00" y="0.00" width="2.00" height="100.00" />
      <rect x="276.00" y="0.00" width="4.00" height="100.00" />
      <rect x="286.00" y="0.00" width="2.00" height="100.00" />
      <rect x="294.00" y="0.00" width="6.00" height="100.00" />
      <rect x="302.00" y="0.00" width="4.00" height="100.00" />
      <rect x="308.00" y="0.00" width="6.00" height="100.00" />
      <rect x="320.00" y="0.00" width="2.00" height="100.00" />
      <rect x="324.00" y="0.00" width="4.00" height="100.00" />
      <rect x="330.00" y="0.00" width="4.00" height="100.00" />
      <rect x="336.00" y="0.00" width="6.00" height="100.00" />
      <rect x="344.00" y="0.00" width="6.00" height="100.00" />
      <rect x="352.00" y="0.00" width="4.00" height="100.00" />
      <rect x="362.00" y="0.00" width="6.00" height="100.00" />
      <rect x="370.00" y="0.00" width="2.00" height="100.00" />
      <rect x="374.00" y="0.00" width="4.00" height="100.00" />
      <text x="189.00" y="118.00" text-anchor="middle"
         font-family="Helvetica" font-size="16.0" fill="#000000" >
         BATCH_FULL_BOX
      </text>
   </g>
</svg>
