<?xml version="1.0" standalone="no"?>
<!DOCTYPE svg PUBLIC "-//W3C//DTD SVG 1.1//EN"
   "http://www.w3.org/Graphics/SVG/1.1/DTD/svg11.dtd">
<svg width="312" height="118" version="1.1"
   xmlns="http://www.w3.org/2000/svg">
   <desc>MPI_ON_LAST
   </desc>

   <g id="barcode" fill="#000000">
      <rect x="0" y="0" width="312" height="118" fill="#FFFFFF" />
      <rect x="0.00" y="0.00" width="4.00" height="100.00" />
      <rect x="6.00" y="0.00" width="2.00" height="100.00" />
      <rect x="12.00" y="0.00" width="2.00" height="100.00" />
      <rect x="22.00" y="0.00" width="2.00" height="100.00" />
      <rect x="26.00" y="0.00" width="6.00" height="100.00" />
      <rect x="34.00" y="0.00" width="4.00" height="100.00" />
      <rect x="44.00" y="0.00" width="6.00" height="100.00" />
      <rect x="52.00" y="0.00" width="6.00" height="100.00" />
      <rect x="60.00" y="0.00" width="4.00" height="100.00" />
      <rect x="66.00" y="0.00" width="4.00" height="100.00" />
      <rect x="76.00" y="0.00" width="2.00" height="100.00" />
      <rect x="84.00" y="0.00" width="2.00" height="100.00" />
      <rect x="88.00" y="0.00" width="2.00" height="100.00" />
      <rect x="92.00" y="0.00" width="2.00" height="100.00" />
      <rect x="98.00" y="0.00" width="4.00" height="100.00" />
      <rect x="110.00" y="0.00" width="2.00" height="100.00" />
      <rect x="118.00" y="0.00" width="6.00" height="100.00" />
      <rect x="126.00" y="0.00" width="4.00" height="100.00" />
      <rect x="132.00" y="0.00" width="2.00" height="100.00" />
      <rect x="136.00" y="0.00" width="6.00" height="100.00" />
      <rect x="148.00" y="0.00" width="4.00" height="100.00" />
      <rect x="154.00" y="0.00" width="2.00" height="100.00" />
      <rect x="158.00" y="0.00" width="2.00" height="100.00" />
      <rect x="164.00" y="0.00" width="4.00" height="100.00" />
      <rect x="176.00" y="0.00" width="2.00" height="100.00" />
      <rect x="184.00" y="0.00" width="4.00" height="100.00" />
      <rect x="190.00" y="0.00" width="6.00" height="100.00" />
      <rect x="198.00" y="0.00" width="2.00" height="100.00" />
      <rect x="202.00" y="0.00" width="2.00" height="100.00" />
      <rect x="210.00" y="0.00" width="4.00" height="100.00" />
      <rect x="220.00" y="0.00" width="4.00" height="100.00" />
      <rect x="226.00" y="0.00" width="6.00" height="100.00" />
      <rect x="234.00" y="0.00" width="2.00" height="100.00" />
      <rect x="242.00" y="0.00" width="4.00" height="100.00" />
      <rect x="248.00" y="0.00" width="6.00" height="100.00" />
      <rect x="260.00" y="0.00" width="2.00" height="100.00" />
      <rect x="264.00" y="0.00" width="2.00" height="100.00" />
      <rect x="270.00" y="0.00" width="4.00" height="100.00" />
      <rect x="280.00" y="0.00" width="2.00" height="100.00" />
      <rect x="286.00" y="0.00" width="4.00" height="100.00" />
      <rect x="296.00" y="0.00" width="6.00" height="100.00" />
      <rect x="304.00" y="0.00" width="2.00" height="100.00" />
      <rect x="308.00" y="0.00" width="4.00" height="100.00" />
      <text x="156.00" y="118.00" text-anchor="middle"
         font-family="Helvetica" font-size="16.0" fill="#000000" >
         MPI_ON_LAST
      </text>
   </g>
</svg>
